<svg xmlns="http://www.w3.org/2000/svg" width="1200" height="1500" viewBox="0 0 1200 1500">
  
  <defs>
    <linearGradient id="bg-anchor-patrol-collar-2" x1="0" y1="0" x2="0" y2="1">
      <stop offset="0%" stop-color="#191919"/>
      <stop offset="100%" stop-color="#0e0e0e"/>
    </linearGradient>
    <radialGradient id="floor-anchor-patrol-collar-2" cx="50%" cy="50%" r="50%">
      <stop offset="0%" stop-color="#000000" stop-opacity="0.45"/>
      <stop offset="100%" stop-color="#000000" stop-opacity="0"/>
    </radialGradient>
    <linearGradient id="sheen-anchor-patrol-collar-2" x1="0" y1="0" x2="0" y2="1">
      <stop offset="0%" stop-color="#ffffff" stop-opacity="0.04"/>
      <stop offset="60%" stop-color="#ffffff" stop-opacity="0"/>
      <stop offset="100%" stop-color="#000000" stop-opacity="0.1"/>
    </linearGradient>
  </defs>
  <rect width="1200" height="1500" fill="url(#bg-anchor-patrol-collar-2)"/>
  <ellipse cx="600" cy="1150" rx="460" ry="110" fill="url(#floor-anchor-patrol-collar-2)"/>
  
  <g transform="translate(600 640) scale(1.45) rotate(-6)">
    <ellipse rx="365" ry="276" fill="none" stroke="#433322" stroke-width="117"/>
    <ellipse rx="365" ry="276" fill="none" stroke="#7A5C3E" stroke-width="107"/>
    <ellipse rx="365" ry="276" fill="none" stroke="#978068" stroke-width="19"
      stroke-dasharray="438 1825" stroke-dashoffset="146" opacity="0.18"/>
    <ellipse rx="365" ry="276" fill="none" stroke="#433322" stroke-width="2"
      stroke-dasharray="8 22" opacity="0.5" transform="scale(0.9032602739726028 0.8720652173913044)"/>
    <ellipse rx="365" ry="276" fill="none" stroke="#433322" stroke-width="2"
      stroke-dasharray="8 22" opacity="0.5" transform="scale(1.0967397260273972 1.1279347826086956)"/>
    <g transform="rotate(-17) translate(0 -276)">
      <rect x="-95" y="-69.5" width="190" height="139" rx="18" fill="#2b2d30" stroke="#54575c" stroke-width="5"/>
      <rect x="-58" y="-49.5" width="116" height="83" rx="10" fill="#1a1b1d" stroke="#45484d" stroke-width="4"/>
      <circle cx="72" cy="0" r="9" fill="#54575c"/>
      <circle cx="-72" cy="0" r="9" fill="#54575c"/>
    </g>
    <g transform="rotate(163) translate(0 -276)">
      <circle r="66.34" fill="none" stroke="#8f9399" stroke-width="16"/>
      <circle r="66.34" fill="none" stroke="#c6cad0" stroke-width="6" stroke-dasharray="40 90"/>
      <rect x="-58.85" y="-20" width="117.7" height="40" rx="12" fill="#433322" stroke="#312519" stroke-width="4"/>
    </g>
  </g>
  <rect width="1200" height="1500" fill="url(#sheen-anchor-patrol-collar-2)" opacity="0.5"/>
</svg>