<svg xmlns="http://www.w3.org/2000/svg" width="1200" height="1500" viewBox="0 0 1200 1500">
  
  <defs>
    <linearGradient id="bg-aurora-padded-collar-2" x1="0" y1="0" x2="0" y2="1">
      <stop offset="0%" stop-color="#ffffff"/>
      <stop offset="100%" stop-color="#ececea"/>
    </linearGradient>
    <radialGradient id="floor-aurora-padded-collar-2" cx="50%" cy="50%" r="50%">
      <stop offset="0%" stop-color="#16161a" stop-opacity="0.16"/>
      <stop offset="100%" stop-color="#16161a" stop-opacity="0"/>
    </radialGradient>
    <linearGradient id="sheen-aurora-padded-collar-2" x1="0" y1="0" x2="0" y2="1">
      <stop offset="0%" stop-color="#ffffff" stop-opacity="0"/>
      <stop offset="60%" stop-color="#ffffff" stop-opacity="0"/>
      <stop offset="100%" stop-color="#16161a" stop-opacity="0.05"/>
    </linearGradient>
  </defs>
  <rect width="1200" height="1500" fill="url(#bg-aurora-padded-collar-2)"/>
  <ellipse cx="600" cy="1150" rx="460" ry="110" fill="url(#floor-aurora-padded-collar-2)"/>
  
  <g transform="translate(600 640) scale(1.45) rotate(-3)">
    <ellipse rx="382" ry="269" fill="none" stroke="#6d6254" stroke-width="109"/>
    <ellipse rx="382" ry="269" fill="none" stroke="#C7B299" stroke-width="99"/>
    <ellipse rx="382" ry="269" fill="none" stroke="#d3c3af" stroke-width="18"
      stroke-dasharray="458 1910" stroke-dashoffset="153" opacity="0.18"/>
    <ellipse rx="382" ry="269" fill="none" stroke="#6d6254" stroke-width="2"
      stroke-dasharray="8 22" opacity="0.5" transform="scale(0.9144764397905759 0.8785501858736059)"/>
    <ellipse rx="382" ry="269" fill="none" stroke="#6d6254" stroke-width="2"
      stroke-dasharray="8 22" opacity="0.5" transform="scale(1.0855235602094242 1.1214498141263942)"/>
    <g transform="rotate(-13) translate(0 -269)">
      <rect x="-95" y="-65.5" width="190" height="131" rx="18" fill="#2b2d30" stroke="#54575c" stroke-width="5"/>
      <rect x="-58" y="-45.5" width="116" height="75" rx="10" fill="#1a1b1d" stroke="#45484d" stroke-width="4"/>
      <circle cx="72" cy="0" r="9" fill="#54575c"/>
      <circle cx="-72" cy="0" r="9" fill="#54575c"/>
    </g>
    <g transform="rotate(167) translate(0 -269)">
      <circle r="61.38" fill="none" stroke="#8f9399" stroke-width="16"/>
      <circle r="61.38" fill="none" stroke="#c6cad0" stroke-width="6" stroke-dasharray="40 90"/>
      <rect x="-54.45" y="-20" width="108.9" height="40" rx="12" fill="#6d6254" stroke="#50473d" stroke-width="4"/>
    </g>
  </g>
  <rect width="1200" height="1500" fill="url(#sheen-aurora-padded-collar-2)" opacity="0.5"/>
</svg>