<svg xmlns="http://www.w3.org/2000/svg" width="1200" height="1500" viewBox="0 0 1200 1500">
  
  <defs>
    <linearGradient id="bg-breach-handle-collar-1" x1="0" y1="0" x2="0" y2="1">
      <stop offset="0%" stop-color="#191919"/>
      <stop offset="100%" stop-color="#0e0e0e"/>
    </linearGradient>
    <radialGradient id="floor-breach-handle-collar-1" cx="50%" cy="50%" r="50%">
      <stop offset="0%" stop-color="#000000" stop-opacity="0.45"/>
      <stop offset="100%" stop-color="#000000" stop-opacity="0"/>
    </radialGradient>
    <linearGradient id="sheen-breach-handle-collar-1" x1="0" y1="0" x2="0" y2="1">
      <stop offset="0%" stop-color="#ffffff" stop-opacity="0.04"/>
      <stop offset="60%" stop-color="#ffffff" stop-opacity="0"/>
      <stop offset="100%" stop-color="#000000" stop-opacity="0.1"/>
    </linearGradient>
  </defs>
  <rect width="1200" height="1500" fill="url(#bg-breach-handle-collar-1)"/>
  <ellipse cx="600" cy="1150" rx="460" ry="110" fill="url(#floor-breach-handle-collar-1)"/>
  
  <g transform="translate(600 720) scale(1) rotate(-9)">
    <ellipse rx="372" ry="271" fill="none" stroke="#292b2f" stroke-width="108"/>
    <ellipse rx="372" ry="271" fill="none" stroke="#4B4F55" stroke-width="98"/>
    <ellipse rx="372" ry="271" fill="none" stroke="#73767a" stroke-width="18"
      stroke-dasharray="446 1860" stroke-dashoffset="149" opacity="0.18"/>
    <ellipse rx="372" ry="271" fill="none" stroke="#292b2f" stroke-width="2"
      stroke-dasharray="8 22" opacity="0.5" transform="scale(0.9130645161290322 0.8806642066420665)"/>
    <ellipse rx="372" ry="271" fill="none" stroke="#292b2f" stroke-width="2"
      stroke-dasharray="8 22" opacity="0.5" transform="scale(1.0869354838709677 1.1193357933579338)"/>
    <g transform="rotate(-27) translate(0 -271)">
      <rect x="-95" y="-65" width="190" height="130" rx="18" fill="#2b2d30" stroke="#54575c" stroke-width="5"/>
      <rect x="-58" y="-45" width="116" height="74" rx="10" fill="#1a1b1d" stroke="#45484d" stroke-width="4"/>
      <circle cx="72" cy="0" r="9" fill="#54575c"/>
      <circle cx="-72" cy="0" r="9" fill="#54575c"/>
    </g>
    <g transform="rotate(153) translate(0 -271)">
      <circle r="60.76" fill="none" stroke="#8f9399" stroke-width="16"/>
      <circle r="60.76" fill="none" stroke="#c6cad0" stroke-width="6" stroke-dasharray="40 90"/>
      <rect x="-53.900000000000006" y="-20" width="107.80000000000001" height="40" rx="12" fill="#292b2f" stroke="#1e2022" stroke-width="4"/>
    </g>
  </g>
  <rect width="1200" height="1500" fill="url(#sheen-breach-handle-collar-1)" opacity="0.5"/>
</svg>