<svg xmlns="http://www.w3.org/2000/svg" width="1200" height="1500" viewBox="0 0 1200 1500">
  
  <defs>
    <linearGradient id="bg-breeze-mesh-collar-4" x1="0" y1="0" x2="0" y2="1">
      <stop offset="0%" stop-color="#1c1c1c"/>
      <stop offset="100%" stop-color="#151515"/>
    </linearGradient>
    <radialGradient id="floor-breeze-mesh-collar-4" cx="50%" cy="50%" r="50%">
      <stop offset="0%" stop-color="#000000" stop-opacity="0.4"/>
      <stop offset="100%" stop-color="#000000" stop-opacity="0"/>
    </radialGradient>
    <filter id="grain-breeze-mesh-collar-4">
      <feTurbulence type="fractalNoise" baseFrequency="0.85" numOctaves="1" stitchTiles="stitch"/>
      <feColorMatrix type="matrix" values="0 0 0 0 1  0 0 0 0 1  0 0 0 0 1  0 0 0 0.012 0"/>
    </filter>
    <linearGradient id="sheen-breeze-mesh-collar-4" x1="0" y1="0" x2="0" y2="1">
      <stop offset="0%" stop-color="#ffffff" stop-opacity="0.05"/>
      <stop offset="60%" stop-color="#ffffff" stop-opacity="0"/>
      <stop offset="100%" stop-color="#000000" stop-opacity="0.08"/>
    </linearGradient>
  </defs>
  <rect width="1200" height="1500" fill="url(#bg-breeze-mesh-collar-4)"/>
  <ellipse cx="600" cy="1150" rx="460" ry="110" fill="url(#floor-breeze-mesh-collar-4)"/>
  
  <g transform="translate(600 760) rotate(-1)">
    
    <rect x="-360" y="-182" width="720" height="104" rx="46" fill="#4e5051"/>
    <rect x="-360" y="-176" width="720" height="92" rx="46" fill="#8E9193"/>
    <rect x="-340" y="-170" width="680" height="15" rx="6" fill="#a2a5a6" opacity="0.16"/>
    <g stroke="#393a3b" stroke-width="2" stroke-dasharray="8 20" opacity="0.5">
             <path d="M-344 -157.6 H344"/>
             <path d="M-344 -102.4 H344"/>
           </g>
    
    <rect x="-310" y="38" width="620" height="104" rx="46" fill="#4e5051"/>
    <rect x="-310" y="44" width="620" height="92" rx="46" fill="#8E9193"/>
    <rect x="-290" y="50" width="580" height="15" rx="6" fill="#a2a5a6" opacity="0.16"/>
    <g stroke="#393a3b" stroke-width="2" stroke-dasharray="8 20" opacity="0.5">
             <path d="M-294 62.400000000000006 H294"/>
             <path d="M-294 117.6 H294"/>
           </g>
    <g transform="translate(-300 -130)">
      <circle r="50.6" fill="none" stroke="#8f9399" stroke-width="12"/>
    </g>
    <g transform="translate(280 90)">
      <rect x="-70" y="-54" width="140" height="108" rx="14" fill="#2b2d30" stroke="#54575c" stroke-width="4"/>
      <rect x="-42" y="-48" width="84" height="96" rx="8" fill="#1a1b1d" stroke="#45484d" stroke-width="3"/>
    </g>
  </g>
  <rect width="1200" height="1500" fill="url(#sheen-breeze-mesh-collar-4)" opacity="0.5"/>
  <rect width="1200" height="1500" filter="url(#grain-breeze-mesh-collar-4)"/>
</svg>