<svg xmlns="http://www.w3.org/2000/svg" width="1200" height="1500" viewBox="0 0 1200 1500">
  
  <defs>
    <linearGradient id="bg-cipher-tactical-collar-4" x1="0" y1="0" x2="0" y2="1">
      <stop offset="0%" stop-color="#ffffff"/>
      <stop offset="100%" stop-color="#ececea"/>
    </linearGradient>
    <radialGradient id="floor-cipher-tactical-collar-4" cx="50%" cy="50%" r="50%">
      <stop offset="0%" stop-color="#16161a" stop-opacity="0.16"/>
      <stop offset="100%" stop-color="#16161a" stop-opacity="0"/>
    </radialGradient>
    <linearGradient id="sheen-cipher-tactical-collar-4" x1="0" y1="0" x2="0" y2="1">
      <stop offset="0%" stop-color="#ffffff" stop-opacity="0"/>
      <stop offset="60%" stop-color="#ffffff" stop-opacity="0"/>
      <stop offset="100%" stop-color="#16161a" stop-opacity="0.05"/>
    </linearGradient>
  </defs>
  <rect width="1200" height="1500" fill="url(#bg-cipher-tactical-collar-4)"/>
  <ellipse cx="600" cy="1150" rx="460" ry="110" fill="url(#floor-cipher-tactical-collar-4)"/>
  
  <g transform="translate(600 760) rotate(-3)">
    
    <rect x="-360" y="-182" width="720" height="104" rx="46" fill="#111111"/>
    <rect x="-360" y="-176" width="720" height="92" rx="46" fill="#1F1F1F"/>
    <rect x="-340" y="-170" width="680" height="15" rx="6" fill="#474747" opacity="0.16"/>
    <g stroke="#0c0c0c" stroke-width="2" stroke-dasharray="8 20" opacity="0.5">
             <path d="M-344 -157.6 H344"/>
             <path d="M-344 -102.4 H344"/>
           </g>
    
    <rect x="-310" y="38" width="620" height="104" rx="46" fill="#111111"/>
    <rect x="-310" y="44" width="620" height="92" rx="46" fill="#1F1F1F"/>
    <rect x="-290" y="50" width="580" height="15" rx="6" fill="#474747" opacity="0.16"/>
    <g stroke="#0c0c0c" stroke-width="2" stroke-dasharray="8 20" opacity="0.5">
             <path d="M-294 62.400000000000006 H294"/>
             <path d="M-294 117.6 H294"/>
           </g>
    <g transform="translate(-300 -130)">
      <circle r="50.6" fill="none" stroke="#8f9399" stroke-width="12"/>
    </g>
    <g transform="translate(280 90)">
      <rect x="-70" y="-54" width="140" height="108" rx="14" fill="#2b2d30" stroke="#54575c" stroke-width="4"/>
      <rect x="-42" y="-48" width="84" height="96" rx="8" fill="#1a1b1d" stroke="#45484d" stroke-width="3"/>
    </g>
  </g>
  <rect width="1200" height="1500" fill="url(#sheen-cipher-tactical-collar-4)" opacity="0.5"/>
</svg>