<svg xmlns="http://www.w3.org/2000/svg" width="1200" height="1500" viewBox="0 0 1200 1500">
  
  <defs>
    <linearGradient id="bg-drift-coastal-collar-2" x1="0" y1="0" x2="0" y2="1">
      <stop offset="0%" stop-color="#ffffff"/>
      <stop offset="100%" stop-color="#ececea"/>
    </linearGradient>
    <radialGradient id="floor-drift-coastal-collar-2" cx="50%" cy="50%" r="50%">
      <stop offset="0%" stop-color="#16161a" stop-opacity="0.16"/>
      <stop offset="100%" stop-color="#16161a" stop-opacity="0"/>
    </radialGradient>
    <linearGradient id="sheen-drift-coastal-collar-2" x1="0" y1="0" x2="0" y2="1">
      <stop offset="0%" stop-color="#ffffff" stop-opacity="0"/>
      <stop offset="60%" stop-color="#ffffff" stop-opacity="0"/>
      <stop offset="100%" stop-color="#16161a" stop-opacity="0.05"/>
    </linearGradient>
  </defs>
  <rect width="1200" height="1500" fill="url(#bg-drift-coastal-collar-2)"/>
  <ellipse cx="600" cy="1150" rx="460" ry="110" fill="url(#floor-drift-coastal-collar-2)"/>
  
  <g transform="translate(600 640) scale(1.45) rotate(1)">
    <ellipse rx="376" ry="283" fill="none" stroke="#131a29" stroke-width="118"/>
    <ellipse rx="376" ry="283" fill="none" stroke="#22304A" stroke-width="108"/>
    <ellipse rx="376" ry="283" fill="none" stroke="#535e72" stroke-width="19"
      stroke-dasharray="451 1880" stroke-dashoffset="150" opacity="0.18"/>
    <ellipse rx="376" ry="283" fill="none" stroke="#131a29" stroke-width="2"
      stroke-dasharray="8 22" opacity="0.5" transform="scale(0.9052127659574468 0.8740636042402827)"/>
    <ellipse rx="376" ry="283" fill="none" stroke="#131a29" stroke-width="2"
      stroke-dasharray="8 22" opacity="0.5" transform="scale(1.094787234042553 1.1259363957597173)"/>
    <g transform="rotate(-29) translate(0 -283)">
      <rect x="-95" y="-70" width="190" height="140" rx="18" fill="#2b2d30" stroke="#54575c" stroke-width="5"/>
      <rect x="-58" y="-50" width="116" height="84" rx="10" fill="#1a1b1d" stroke="#45484d" stroke-width="4"/>
      <circle cx="72" cy="0" r="9" fill="#54575c"/>
      <circle cx="-72" cy="0" r="9" fill="#54575c"/>
    </g>
    <g transform="rotate(151) translate(0 -283)">
      <circle r="66.96" fill="none" stroke="#8f9399" stroke-width="16"/>
      <circle r="66.96" fill="none" stroke="#c6cad0" stroke-width="6" stroke-dasharray="40 90"/>
      <rect x="-59.400000000000006" y="-20" width="118.80000000000001" height="40" rx="12" fill="#131a29" stroke="#0e131e" stroke-width="4"/>
    </g>
  </g>
  <rect width="1200" height="1500" fill="url(#sheen-drift-coastal-collar-2)" opacity="0.5"/>
</svg>