<svg xmlns="http://www.w3.org/2000/svg" width="1200" height="1500" viewBox="0 0 1200 1500">
  
  <defs>
    <linearGradient id="bg-ember-reflective-collar-1" x1="0" y1="0" x2="0" y2="1">
      <stop offset="0%" stop-color="#ffffff"/>
      <stop offset="100%" stop-color="#ececea"/>
    </linearGradient>
    <radialGradient id="floor-ember-reflective-collar-1" cx="50%" cy="50%" r="50%">
      <stop offset="0%" stop-color="#16161a" stop-opacity="0.16"/>
      <stop offset="100%" stop-color="#16161a" stop-opacity="0"/>
    </radialGradient>
    <linearGradient id="sheen-ember-reflective-collar-1" x1="0" y1="0" x2="0" y2="1">
      <stop offset="0%" stop-color="#ffffff" stop-opacity="0"/>
      <stop offset="60%" stop-color="#ffffff" stop-opacity="0"/>
      <stop offset="100%" stop-color="#16161a" stop-opacity="0.05"/>
    </linearGradient>
  </defs>
  <rect width="1200" height="1500" fill="url(#bg-ember-reflective-collar-1)"/>
  <ellipse cx="600" cy="1150" rx="460" ry="110" fill="url(#floor-ember-reflective-collar-1)"/>
  
  <g transform="translate(600 720) scale(1) rotate(11)">
    <ellipse rx="376" ry="266" fill="none" stroke="#62000f" stroke-width="111"/>
    <ellipse rx="376" ry="266" fill="none" stroke="#B3001B" stroke-width="101"/>
    <ellipse rx="376" ry="266" fill="none" stroke="#c4384d" stroke-width="18"
      stroke-dasharray="451 1880" stroke-dashoffset="150" opacity="0.18"/>
    <ellipse rx="376" ry="266" fill="none" stroke="#62000f" stroke-width="2"
      stroke-dasharray="8 22" opacity="0.5" transform="scale(0.9113563829787235 0.8746992481203009)"/>
    <ellipse rx="376" ry="266" fill="none" stroke="#62000f" stroke-width="2"
      stroke-dasharray="8 22" opacity="0.5" transform="scale(1.0886436170212765 1.1253007518796991)"/>
    <g transform="rotate(-19) translate(0 -266)">
      <rect x="-95" y="-66.5" width="190" height="133" rx="18" fill="#2b2d30" stroke="#54575c" stroke-width="5"/>
      <rect x="-58" y="-46.5" width="116" height="77" rx="10" fill="#1a1b1d" stroke="#45484d" stroke-width="4"/>
      <circle cx="72" cy="0" r="9" fill="#54575c"/>
      <circle cx="-72" cy="0" r="9" fill="#54575c"/>
    </g>
    <g transform="rotate(161) translate(0 -266)">
      <circle r="62.62" fill="none" stroke="#8f9399" stroke-width="16"/>
      <circle r="62.62" fill="none" stroke="#c6cad0" stroke-width="6" stroke-dasharray="40 90"/>
      <rect x="-55.550000000000004" y="-20" width="111.10000000000001" height="40" rx="12" fill="#62000f" stroke="#48000b" stroke-width="4"/>
    </g>
  </g>
  <rect width="1200" height="1500" fill="url(#sheen-ember-reflective-collar-1)" opacity="0.5"/>
</svg>