<svg xmlns="http://www.w3.org/2000/svg" width="1200" height="1500" viewBox="0 0 1200 1500">
  
  <defs>
    <linearGradient id="bg-fjord-everyday-collar-1" x1="0" y1="0" x2="0" y2="1">
      <stop offset="0%" stop-color="#ffffff"/>
      <stop offset="100%" stop-color="#ececea"/>
    </linearGradient>
    <radialGradient id="floor-fjord-everyday-collar-1" cx="50%" cy="50%" r="50%">
      <stop offset="0%" stop-color="#16161a" stop-opacity="0.16"/>
      <stop offset="100%" stop-color="#16161a" stop-opacity="0"/>
    </radialGradient>
    <linearGradient id="sheen-fjord-everyday-collar-1" x1="0" y1="0" x2="0" y2="1">
      <stop offset="0%" stop-color="#ffffff" stop-opacity="0"/>
      <stop offset="60%" stop-color="#ffffff" stop-opacity="0"/>
      <stop offset="100%" stop-color="#16161a" stop-opacity="0.05"/>
    </linearGradient>
  </defs>
  <rect width="1200" height="1500" fill="url(#bg-fjord-everyday-collar-1)"/>
  <ellipse cx="600" cy="1150" rx="460" ry="110" fill="url(#floor-fjord-everyday-collar-1)"/>
  
  <g transform="translate(600 720) scale(1) rotate(1)">
    <ellipse rx="375" ry="293" fill="none" stroke="#131a29" stroke-width="113"/>
    <ellipse rx="375" ry="293" fill="none" stroke="#22304A" stroke-width="103"/>
    <ellipse rx="375" ry="293" fill="none" stroke="#535e72" stroke-width="19"
      stroke-dasharray="450 1875" stroke-dashoffset="150" opacity="0.18"/>
    <ellipse rx="375" ry="293" fill="none" stroke="#131a29" stroke-width="2"
      stroke-dasharray="8 22" opacity="0.5" transform="scale(0.90936 0.8839931740614334)"/>
    <ellipse rx="375" ry="293" fill="none" stroke="#131a29" stroke-width="2"
      stroke-dasharray="8 22" opacity="0.5" transform="scale(1.09064 1.1160068259385665)"/>
    <g transform="rotate(-26) translate(0 -293)">
      <rect x="-95" y="-67.5" width="190" height="135" rx="18" fill="#2b2d30" stroke="#54575c" stroke-width="5"/>
      <rect x="-58" y="-47.5" width="116" height="79" rx="10" fill="#1a1b1d" stroke="#45484d" stroke-width="4"/>
      <circle cx="72" cy="0" r="9" fill="#54575c"/>
      <circle cx="-72" cy="0" r="9" fill="#54575c"/>
    </g>
    <g transform="rotate(154) translate(0 -293)">
      <circle r="63.86" fill="none" stroke="#8f9399" stroke-width="16"/>
      <circle r="63.86" fill="none" stroke="#c6cad0" stroke-width="6" stroke-dasharray="40 90"/>
      <rect x="-56.650000000000006" y="-20" width="113.30000000000001" height="40" rx="12" fill="#131a29" stroke="#0e131e" stroke-width="4"/>
    </g>
  </g>
  <rect width="1200" height="1500" fill="url(#sheen-fjord-everyday-collar-1)" opacity="0.5"/>
</svg>