<svg xmlns="http://www.w3.org/2000/svg" width="1200" height="1500" viewBox="0 0 1200 1500">
  
  <defs>
    <linearGradient id="bg-grip-handle-collar-2" x1="0" y1="0" x2="0" y2="1">
      <stop offset="0%" stop-color="#191919"/>
      <stop offset="100%" stop-color="#0e0e0e"/>
    </linearGradient>
    <radialGradient id="floor-grip-handle-collar-2" cx="50%" cy="50%" r="50%">
      <stop offset="0%" stop-color="#000000" stop-opacity="0.45"/>
      <stop offset="100%" stop-color="#000000" stop-opacity="0"/>
    </radialGradient>
    <linearGradient id="sheen-grip-handle-collar-2" x1="0" y1="0" x2="0" y2="1">
      <stop offset="0%" stop-color="#ffffff" stop-opacity="0.04"/>
      <stop offset="60%" stop-color="#ffffff" stop-opacity="0"/>
      <stop offset="100%" stop-color="#000000" stop-opacity="0.1"/>
    </linearGradient>
  </defs>
  <rect width="1200" height="1500" fill="url(#bg-grip-handle-collar-2)"/>
  <ellipse cx="600" cy="1150" rx="460" ry="110" fill="url(#floor-grip-handle-collar-2)"/>
  
  <g transform="translate(600 640) scale(1.45) rotate(5)">
    <ellipse rx="372" ry="264" fill="none" stroke="#111111" stroke-width="113"/>
    <ellipse rx="372" ry="264" fill="none" stroke="#1F1F1F" stroke-width="103"/>
    <ellipse rx="372" ry="264" fill="none" stroke="#505050" stroke-width="19"
      stroke-dasharray="446 1860" stroke-dashoffset="149" opacity="0.18"/>
    <ellipse rx="372" ry="264" fill="none" stroke="#111111" stroke-width="2"
      stroke-dasharray="8 22" opacity="0.5" transform="scale(0.9086290322580645 0.87125)"/>
    <ellipse rx="372" ry="264" fill="none" stroke="#111111" stroke-width="2"
      stroke-dasharray="8 22" opacity="0.5" transform="scale(1.0913709677419354 1.1287500000000001)"/>
    <g transform="rotate(-28) translate(0 -264)">
      <rect x="-95" y="-67.5" width="190" height="135" rx="18" fill="#2b2d30" stroke="#54575c" stroke-width="5"/>
      <rect x="-58" y="-47.5" width="116" height="79" rx="10" fill="#1a1b1d" stroke="#45484d" stroke-width="4"/>
      <circle cx="72" cy="0" r="9" fill="#54575c"/>
      <circle cx="-72" cy="0" r="9" fill="#54575c"/>
    </g>
    <g transform="rotate(152) translate(0 -264)">
      <circle r="63.86" fill="none" stroke="#8f9399" stroke-width="16"/>
      <circle r="63.86" fill="none" stroke="#c6cad0" stroke-width="6" stroke-dasharray="40 90"/>
      <rect x="-56.650000000000006" y="-20" width="113.30000000000001" height="40" rx="12" fill="#111111" stroke="#0c0c0c" stroke-width="4"/>
    </g>
  </g>
  <rect width="1200" height="1500" fill="url(#sheen-grip-handle-collar-2)" opacity="0.5"/>
</svg>