<svg xmlns="http://www.w3.org/2000/svg" width="1200" height="1500" viewBox="0 0 1200 1500">
  
  <defs>
    <linearGradient id="bg-havoc-chain-martingale-2" x1="0" y1="0" x2="0" y2="1">
      <stop offset="0%" stop-color="#ffffff"/>
      <stop offset="100%" stop-color="#ececea"/>
    </linearGradient>
    <radialGradient id="floor-havoc-chain-martingale-2" cx="50%" cy="50%" r="50%">
      <stop offset="0%" stop-color="#16161a" stop-opacity="0.16"/>
      <stop offset="100%" stop-color="#16161a" stop-opacity="0"/>
    </radialGradient>
    <filter id="grain-havoc-chain-martingale-2">
      <feTurbulence type="fractalNoise" baseFrequency="0.85" numOctaves="1" stitchTiles="stitch"/>
      <feColorMatrix type="matrix" values="0 0 0 0 0  0 0 0 0 0  0 0 0 0 0  0 0 0 0.016 0"/>
    </filter>
    <linearGradient id="sheen-havoc-chain-martingale-2" x1="0" y1="0" x2="0" y2="1">
      <stop offset="0%" stop-color="#ffffff" stop-opacity="0"/>
      <stop offset="60%" stop-color="#ffffff" stop-opacity="0"/>
      <stop offset="100%" stop-color="#16161a" stop-opacity="0.05"/>
    </linearGradient>
  </defs>
  <rect width="1200" height="1500" fill="url(#bg-havoc-chain-martingale-2)"/>
  <ellipse cx="600" cy="1150" rx="460" ry="110" fill="url(#floor-havoc-chain-martingale-2)"/>
  
  <g transform="translate(600 640) scale(1.5) rotate(-9)">
    <ellipse rx="378" ry="308" fill="none" stroke="#5f6265" stroke-width="8" opacity="0.6"/>
    <ellipse cx="378.0" cy="0.0" rx="52" ry="34"
      transform="rotate(90.0 378.0 0.0)"
      fill="none" stroke="#c0c3c6" stroke-width="17" opacity="0.97"/><ellipse cx="367.0" cy="73.7" rx="52" ry="34"
      transform="rotate(73.2 367.0 73.7)"
      fill="none" stroke="#9EA3A8" stroke-width="17" opacity="0.97"/><ellipse cx="334.7" cy="143.1" rx="52" ry="34"
      transform="rotate(57.2 334.7 143.1)"
      fill="none" stroke="#c0c3c6" stroke-width="17" opacity="0.97"/><ellipse cx="282.9" cy="204.2" rx="52" ry="34"
      transform="rotate(42.6 282.9 204.2)"
      fill="none" stroke="#9EA3A8" stroke-width="17" opacity="0.97"/><ellipse cx="214.7" cy="253.5" rx="52" ry="34"
      transform="rotate(29.4 214.7 253.5)"
      fill="none" stroke="#c0c3c6" stroke-width="17" opacity="0.97"/><ellipse cx="134.0" cy="288.0" rx="52" ry="34"
      transform="rotate(17.2 134.0 288.0)"
      fill="none" stroke="#9EA3A8" stroke-width="17" opacity="0.97"/><ellipse cx="45.6" cy="305.8" rx="52" ry="34"
      transform="rotate(5.7 45.6 305.8)"
      fill="none" stroke="#c0c3c6" stroke-width="17" opacity="0.97"/><ellipse cx="-45.6" cy="305.8" rx="52" ry="34"
      transform="rotate(-5.7 -45.6 305.8)"
      fill="none" stroke="#9EA3A8" stroke-width="17" opacity="0.97"/><ellipse cx="-134.0" cy="288.0" rx="52" ry="34"
      transform="rotate(-17.2 -134.0 288.0)"
      fill="none" stroke="#c0c3c6" stroke-width="17" opacity="0.97"/><ellipse cx="-214.7" cy="253.5" rx="52" ry="34"
      transform="rotate(-29.4 -214.7 253.5)"
      fill="none" stroke="#9EA3A8" stroke-width="17" opacity="0.97"/><ellipse cx="-282.9" cy="204.2" rx="52" ry="34"
      transform="rotate(-42.6 -282.9 204.2)"
      fill="none" stroke="#c0c3c6" stroke-width="17" opacity="0.97"/><ellipse cx="-334.7" cy="143.1" rx="52" ry="34"
      transform="rotate(-57.2 -334.7 143.1)"
      fill="none" stroke="#9EA3A8" stroke-width="17" opacity="0.97"/><ellipse cx="-367.0" cy="73.7" rx="52" ry="34"
      transform="rotate(-73.2 -367.0 73.7)"
      fill="none" stroke="#c0c3c6" stroke-width="17" opacity="0.97"/><ellipse cx="-378.0" cy="0.0" rx="52" ry="34"
      transform="rotate(-90.0 -378.0 0.0)"
      fill="none" stroke="#9EA3A8" stroke-width="17" opacity="0.97"/><ellipse cx="-367.0" cy="-73.7" rx="52" ry="34"
      transform="rotate(253.2 -367.0 -73.7)"
      fill="none" stroke="#c0c3c6" stroke-width="17" opacity="0.97"/><ellipse cx="-334.7" cy="-143.1" rx="52" ry="34"
      transform="rotate(237.2 -334.7 -143.1)"
      fill="none" stroke="#9EA3A8" stroke-width="17" opacity="0.97"/><ellipse cx="-282.9" cy="-204.2" rx="52" ry="34"
      transform="rotate(222.6 -282.9 -204.2)"
      fill="none" stroke="#c0c3c6" stroke-width="17" opacity="0.97"/><ellipse cx="-214.7" cy="-253.5" rx="52" ry="34"
      transform="rotate(209.4 -214.7 -253.5)"
      fill="none" stroke="#9EA3A8" stroke-width="17" opacity="0.97"/><ellipse cx="-134.0" cy="-288.0" rx="52" ry="34"
      transform="rotate(197.2 -134.0 -288.0)"
      fill="none" stroke="#c0c3c6" stroke-width="17" opacity="0.97"/><ellipse cx="-45.6" cy="-305.8" rx="52" ry="34"
      transform="rotate(185.7 -45.6 -305.8)"
      fill="none" stroke="#9EA3A8" stroke-width="17" opacity="0.97"/><ellipse cx="45.6" cy="-305.8" rx="52" ry="34"
      transform="rotate(174.3 45.6 -305.8)"
      fill="none" stroke="#c0c3c6" stroke-width="17" opacity="0.97"/><ellipse cx="134.0" cy="-288.0" rx="52" ry="34"
      transform="rotate(162.8 134.0 -288.0)"
      fill="none" stroke="#9EA3A8" stroke-width="17" opacity="0.97"/><ellipse cx="214.7" cy="-253.5" rx="52" ry="34"
      transform="rotate(150.6 214.7 -253.5)"
      fill="none" stroke="#c0c3c6" stroke-width="17" opacity="0.97"/><ellipse cx="282.9" cy="-204.2" rx="52" ry="34"
      transform="rotate(137.4 282.9 -204.2)"
      fill="none" stroke="#9EA3A8" stroke-width="17" opacity="0.97"/><ellipse cx="334.7" cy="-143.1" rx="52" ry="34"
      transform="rotate(122.8 334.7 -143.1)"
      fill="none" stroke="#c0c3c6" stroke-width="17" opacity="0.97"/><ellipse cx="367.0" cy="-73.7" rx="52" ry="34"
      transform="rotate(106.8 367.0 -73.7)"
      fill="none" stroke="#9EA3A8" stroke-width="17" opacity="0.97"/>
    <g transform="translate(0 -308)">
      <circle r="72" fill="none" stroke="#c0c3c6" stroke-width="20"/>
      <circle r="40" fill="none" stroke="#9EA3A8" stroke-width="16"/>
    </g>
  </g>
  <rect width="1200" height="1500" fill="url(#sheen-havoc-chain-martingale-2)" opacity="0.5"/>
  <rect width="1200" height="1500" filter="url(#grain-havoc-chain-martingale-2)"/>
</svg>