<svg xmlns="http://www.w3.org/2000/svg" width="1200" height="1500" viewBox="0 0 1200 1500">
  
  <defs>
    <linearGradient id="bg-k9-check-training-chain-4" x1="0" y1="0" x2="0" y2="1">
      <stop offset="0%" stop-color="#191919"/>
      <stop offset="100%" stop-color="#0e0e0e"/>
    </linearGradient>
    <radialGradient id="floor-k9-check-training-chain-4" cx="50%" cy="50%" r="50%">
      <stop offset="0%" stop-color="#000000" stop-opacity="0.45"/>
      <stop offset="100%" stop-color="#000000" stop-opacity="0"/>
    </radialGradient>
    <linearGradient id="sheen-k9-check-training-chain-4" x1="0" y1="0" x2="0" y2="1">
      <stop offset="0%" stop-color="#ffffff" stop-opacity="0.04"/>
      <stop offset="60%" stop-color="#ffffff" stop-opacity="0"/>
      <stop offset="100%" stop-color="#000000" stop-opacity="0.1"/>
    </linearGradient>
  </defs>
  <rect width="1200" height="1500" fill="url(#bg-k9-check-training-chain-4)"/>
  <ellipse cx="600" cy="1150" rx="460" ry="110" fill="url(#floor-k9-check-training-chain-4)"/>
  
  <g transform="translate(600 760) rotate(0)">
    
    <rect x="-360" y="-153" width="720" height="46" rx="17" fill="#292b2f"/>
    <rect x="-360" y="-147" width="720" height="34" rx="17" fill="#4B4F55"/>
    <rect x="-340" y="-141" width="680" height="5" rx="6" fill="#6b6f74" opacity="0.16"/>
    
    
    <rect x="-310" y="67" width="620" height="46" rx="17" fill="#292b2f"/>
    <rect x="-310" y="73" width="620" height="34" rx="17" fill="#4B4F55"/>
    <rect x="-290" y="79" width="580" height="5" rx="6" fill="#6b6f74" opacity="0.16"/>
    
    <g transform="translate(-300 -130)">
      <circle r="18.700000000000003" fill="none" stroke="#8f9399" stroke-width="12"/>
    </g>
    <g transform="translate(280 90)">
      <rect x="-70" y="-25" width="140" height="50" rx="14" fill="#2b2d30" stroke="#54575c" stroke-width="4"/>
      <rect x="-42" y="-19" width="84" height="38" rx="8" fill="#1a1b1d" stroke="#45484d" stroke-width="3"/>
    </g>
  </g>
  <rect width="1200" height="1500" fill="url(#sheen-k9-check-training-chain-4)" opacity="0.5"/>
</svg>