<svg xmlns="http://www.w3.org/2000/svg" width="1200" height="1500" viewBox="0 0 1200 1500">
  
  <defs>
    <linearGradient id="bg-k9-check-training-chain-1" x1="0" y1="0" x2="0" y2="1">
      <stop offset="0%" stop-color="#24282c"/>
      <stop offset="100%" stop-color="#1a1d20"/>
    </linearGradient>
    <radialGradient id="floor-k9-check-training-chain-1" cx="50%" cy="50%" r="50%">
      <stop offset="0%" stop-color="#000000" stop-opacity="0.4"/>
      <stop offset="100%" stop-color="#000000" stop-opacity="0"/>
    </radialGradient>
    <filter id="grain-k9-check-training-chain-1">
      <feTurbulence type="fractalNoise" baseFrequency="0.85" numOctaves="1" stitchTiles="stitch"/>
      <feColorMatrix type="matrix" values="0 0 0 0 1  0 0 0 0 1  0 0 0 0 1  0 0 0 0.012 0"/>
    </filter>
    <linearGradient id="sheen-k9-check-training-chain-1" x1="0" y1="0" x2="0" y2="1">
      <stop offset="0%" stop-color="#ffffff" stop-opacity="0.05"/>
      <stop offset="60%" stop-color="#ffffff" stop-opacity="0"/>
      <stop offset="100%" stop-color="#000000" stop-opacity="0.08"/>
    </linearGradient>
  </defs>
  <rect width="1200" height="1500" fill="url(#bg-k9-check-training-chain-1)"/>
  <ellipse cx="600" cy="1150" rx="460" ry="110" fill="url(#floor-k9-check-training-chain-1)"/>
  
  <g transform="translate(600 720) scale(1) rotate(4)">
    <ellipse rx="371" ry="298" fill="none" stroke="#2d2f33" stroke-width="8" opacity="0.6"/>
    <ellipse cx="371.0" cy="0.0" rx="52" ry="34"
      transform="rotate(90.0 371.0 0.0)"
      fill="none" stroke="#8a8d91" stroke-width="17" opacity="0.97"/><ellipse cx="360.2" cy="71.3" rx="52" ry="34"
      transform="rotate(72.9 360.2 71.3)"
      fill="none" stroke="#4B4F55" stroke-width="17" opacity="0.97"/><ellipse cx="328.5" cy="138.5" rx="52" ry="34"
      transform="rotate(56.8 328.5 138.5)"
      fill="none" stroke="#8a8d91" stroke-width="17" opacity="0.97"/><ellipse cx="277.7" cy="197.6" rx="52" ry="34"
      transform="rotate(42.2 277.7 197.6)"
      fill="none" stroke="#4B4F55" stroke-width="17" opacity="0.97"/><ellipse cx="210.8" cy="245.2" rx="52" ry="34"
      transform="rotate(29.0 210.8 245.2)"
      fill="none" stroke="#8a8d91" stroke-width="17" opacity="0.97"/><ellipse cx="131.6" cy="278.6" rx="52" ry="34"
      transform="rotate(16.9 131.6 278.6)"
      fill="none" stroke="#4B4F55" stroke-width="17" opacity="0.97"/><ellipse cx="44.7" cy="295.8" rx="52" ry="34"
      transform="rotate(5.6 44.7 295.8)"
      fill="none" stroke="#8a8d91" stroke-width="17" opacity="0.97"/><ellipse cx="-44.7" cy="295.8" rx="52" ry="34"
      transform="rotate(-5.6 -44.7 295.8)"
      fill="none" stroke="#4B4F55" stroke-width="17" opacity="0.97"/><ellipse cx="-131.6" cy="278.6" rx="52" ry="34"
      transform="rotate(-16.9 -131.6 278.6)"
      fill="none" stroke="#8a8d91" stroke-width="17" opacity="0.97"/><ellipse cx="-210.8" cy="245.2" rx="52" ry="34"
      transform="rotate(-29.0 -210.8 245.2)"
      fill="none" stroke="#4B4F55" stroke-width="17" opacity="0.97"/><ellipse cx="-277.7" cy="197.6" rx="52" ry="34"
      transform="rotate(-42.2 -277.7 197.6)"
      fill="none" stroke="#8a8d91" stroke-width="17" opacity="0.97"/><ellipse cx="-328.5" cy="138.5" rx="52" ry="34"
      transform="rotate(-56.8 -328.5 138.5)"
      fill="none" stroke="#4B4F55" stroke-width="17" opacity="0.97"/><ellipse cx="-360.2" cy="71.3" rx="52" ry="34"
      transform="rotate(-72.9 -360.2 71.3)"
      fill="none" stroke="#8a8d91" stroke-width="17" opacity="0.97"/><ellipse cx="-371.0" cy="0.0" rx="52" ry="34"
      transform="rotate(-90.0 -371.0 0.0)"
      fill="none" stroke="#4B4F55" stroke-width="17" opacity="0.97"/><ellipse cx="-360.2" cy="-71.3" rx="52" ry="34"
      transform="rotate(252.9 -360.2 -71.3)"
      fill="none" stroke="#8a8d91" stroke-width="17" opacity="0.97"/><ellipse cx="-328.5" cy="-138.5" rx="52" ry="34"
      transform="rotate(236.8 -328.5 -138.5)"
      fill="none" stroke="#4B4F55" stroke-width="17" opacity="0.97"/><ellipse cx="-277.7" cy="-197.6" rx="52" ry="34"
      transform="rotate(222.2 -277.7 -197.6)"
      fill="none" stroke="#8a8d91" stroke-width="17" opacity="0.97"/><ellipse cx="-210.8" cy="-245.2" rx="52" ry="34"
      transform="rotate(209.0 -210.8 -245.2)"
      fill="none" stroke="#4B4F55" stroke-width="17" opacity="0.97"/><ellipse cx="-131.6" cy="-278.6" rx="52" ry="34"
      transform="rotate(196.9 -131.6 -278.6)"
      fill="none" stroke="#8a8d91" stroke-width="17" opacity="0.97"/><ellipse cx="-44.7" cy="-295.8" rx="52" ry="34"
      transform="rotate(185.6 -44.7 -295.8)"
      fill="none" stroke="#4B4F55" stroke-width="17" opacity="0.97"/><ellipse cx="44.7" cy="-295.8" rx="52" ry="34"
      transform="rotate(174.4 44.7 -295.8)"
      fill="none" stroke="#8a8d91" stroke-width="17" opacity="0.97"/><ellipse cx="131.6" cy="-278.6" rx="52" ry="34"
      transform="rotate(163.1 131.6 -278.6)"
      fill="none" stroke="#4B4F55" stroke-width="17" opacity="0.97"/><ellipse cx="210.8" cy="-245.2" rx="52" ry="34"
      transform="rotate(151.0 210.8 -245.2)"
      fill="none" stroke="#8a8d91" stroke-width="17" opacity="0.97"/><ellipse cx="277.7" cy="-197.6" rx="52" ry="34"
      transform="rotate(137.8 277.7 -197.6)"
      fill="none" stroke="#4B4F55" stroke-width="17" opacity="0.97"/><ellipse cx="328.5" cy="-138.5" rx="52" ry="34"
      transform="rotate(123.2 328.5 -138.5)"
      fill="none" stroke="#8a8d91" stroke-width="17" opacity="0.97"/><ellipse cx="360.2" cy="-71.3" rx="52" ry="34"
      transform="rotate(107.1 360.2 -71.3)"
      fill="none" stroke="#4B4F55" stroke-width="17" opacity="0.97"/>
    <g transform="translate(0 -298)">
      <circle r="72" fill="none" stroke="#8a8d91" stroke-width="20"/>
      <circle r="40" fill="none" stroke="#4B4F55" stroke-width="16"/>
    </g>
  </g>
  <rect width="1200" height="1500" fill="url(#sheen-k9-check-training-chain-1)" opacity="0.5"/>
  <rect width="1200" height="1500" filter="url(#grain-k9-check-training-chain-1)"/>
</svg>