<svg xmlns="http://www.w3.org/2000/svg" width="1200" height="1500" viewBox="0 0 1200 1500">
  
  <defs>
    <linearGradient id="bg-k9-check-training-chain-2" x1="0" y1="0" x2="0" y2="1">
      <stop offset="0%" stop-color="#24282c"/>
      <stop offset="100%" stop-color="#1a1d20"/>
    </linearGradient>
    <radialGradient id="floor-k9-check-training-chain-2" cx="50%" cy="50%" r="50%">
      <stop offset="0%" stop-color="#000000" stop-opacity="0.4"/>
      <stop offset="100%" stop-color="#000000" stop-opacity="0"/>
    </radialGradient>
    <filter id="grain-k9-check-training-chain-2">
      <feTurbulence type="fractalNoise" baseFrequency="0.85" numOctaves="1" stitchTiles="stitch"/>
      <feColorMatrix type="matrix" values="0 0 0 0 1  0 0 0 0 1  0 0 0 0 1  0 0 0 0.012 0"/>
    </filter>
    <linearGradient id="sheen-k9-check-training-chain-2" x1="0" y1="0" x2="0" y2="1">
      <stop offset="0%" stop-color="#ffffff" stop-opacity="0.05"/>
      <stop offset="60%" stop-color="#ffffff" stop-opacity="0"/>
      <stop offset="100%" stop-color="#000000" stop-opacity="0.08"/>
    </linearGradient>
  </defs>
  <rect width="1200" height="1500" fill="url(#bg-k9-check-training-chain-2)"/>
  <ellipse cx="600" cy="1150" rx="460" ry="110" fill="url(#floor-k9-check-training-chain-2)"/>
  
  <g transform="translate(600 640) scale(1.5) rotate(7)">
    <ellipse rx="395" ry="315" fill="none" stroke="#2d2f33" stroke-width="8" opacity="0.6"/>
    <ellipse cx="395.0" cy="0.0" rx="52" ry="34"
      transform="rotate(90.0 395.0 0.0)"
      fill="none" stroke="#8a8d91" stroke-width="17" opacity="0.97"/><ellipse cx="383.5" cy="75.4" rx="52" ry="34"
      transform="rotate(72.8 383.5 75.4)"
      fill="none" stroke="#4B4F55" stroke-width="17" opacity="0.97"/><ellipse cx="349.8" cy="146.4" rx="52" ry="34"
      transform="rotate(56.6 349.8 146.4)"
      fill="none" stroke="#8a8d91" stroke-width="17" opacity="0.97"/><ellipse cx="295.7" cy="208.9" rx="52" ry="34"
      transform="rotate(42.0 295.7 208.9)"
      fill="none" stroke="#4B4F55" stroke-width="17" opacity="0.97"/><ellipse cx="224.4" cy="259.2" rx="52" ry="34"
      transform="rotate(28.8 224.4 259.2)"
      fill="none" stroke="#8a8d91" stroke-width="17" opacity="0.97"/><ellipse cx="140.1" cy="294.5" rx="52" ry="34"
      transform="rotate(16.8 140.1 294.5)"
      fill="none" stroke="#4B4F55" stroke-width="17" opacity="0.97"/><ellipse cx="47.6" cy="312.7" rx="52" ry="34"
      transform="rotate(5.5 47.6 312.7)"
      fill="none" stroke="#8a8d91" stroke-width="17" opacity="0.97"/><ellipse cx="-47.6" cy="312.7" rx="52" ry="34"
      transform="rotate(-5.5 -47.6 312.7)"
      fill="none" stroke="#4B4F55" stroke-width="17" opacity="0.97"/><ellipse cx="-140.1" cy="294.5" rx="52" ry="34"
      transform="rotate(-16.8 -140.1 294.5)"
      fill="none" stroke="#8a8d91" stroke-width="17" opacity="0.97"/><ellipse cx="-224.4" cy="259.2" rx="52" ry="34"
      transform="rotate(-28.8 -224.4 259.2)"
      fill="none" stroke="#4B4F55" stroke-width="17" opacity="0.97"/><ellipse cx="-295.7" cy="208.9" rx="52" ry="34"
      transform="rotate(-42.0 -295.7 208.9)"
      fill="none" stroke="#8a8d91" stroke-width="17" opacity="0.97"/><ellipse cx="-349.8" cy="146.4" rx="52" ry="34"
      transform="rotate(-56.6 -349.8 146.4)"
      fill="none" stroke="#4B4F55" stroke-width="17" opacity="0.97"/><ellipse cx="-383.5" cy="75.4" rx="52" ry="34"
      transform="rotate(-72.8 -383.5 75.4)"
      fill="none" stroke="#8a8d91" stroke-width="17" opacity="0.97"/><ellipse cx="-395.0" cy="0.0" rx="52" ry="34"
      transform="rotate(-90.0 -395.0 0.0)"
      fill="none" stroke="#4B4F55" stroke-width="17" opacity="0.97"/><ellipse cx="-383.5" cy="-75.4" rx="52" ry="34"
      transform="rotate(252.8 -383.5 -75.4)"
      fill="none" stroke="#8a8d91" stroke-width="17" opacity="0.97"/><ellipse cx="-349.8" cy="-146.4" rx="52" ry="34"
      transform="rotate(236.6 -349.8 -146.4)"
      fill="none" stroke="#4B4F55" stroke-width="17" opacity="0.97"/><ellipse cx="-295.7" cy="-208.9" rx="52" ry="34"
      transform="rotate(222.0 -295.7 -208.9)"
      fill="none" stroke="#8a8d91" stroke-width="17" opacity="0.97"/><ellipse cx="-224.4" cy="-259.2" rx="52" ry="34"
      transform="rotate(208.8 -224.4 -259.2)"
      fill="none" stroke="#4B4F55" stroke-width="17" opacity="0.97"/><ellipse cx="-140.1" cy="-294.5" rx="52" ry="34"
      transform="rotate(196.8 -140.1 -294.5)"
      fill="none" stroke="#8a8d91" stroke-width="17" opacity="0.97"/><ellipse cx="-47.6" cy="-312.7" rx="52" ry="34"
      transform="rotate(185.5 -47.6 -312.7)"
      fill="none" stroke="#4B4F55" stroke-width="17" opacity="0.97"/><ellipse cx="47.6" cy="-312.7" rx="52" ry="34"
      transform="rotate(174.5 47.6 -312.7)"
      fill="none" stroke="#8a8d91" stroke-width="17" opacity="0.97"/><ellipse cx="140.1" cy="-294.5" rx="52" ry="34"
      transform="rotate(163.2 140.1 -294.5)"
      fill="none" stroke="#4B4F55" stroke-width="17" opacity="0.97"/><ellipse cx="224.4" cy="-259.2" rx="52" ry="34"
      transform="rotate(151.2 224.4 -259.2)"
      fill="none" stroke="#8a8d91" stroke-width="17" opacity="0.97"/><ellipse cx="295.7" cy="-208.9" rx="52" ry="34"
      transform="rotate(138.0 295.7 -208.9)"
      fill="none" stroke="#4B4F55" stroke-width="17" opacity="0.97"/><ellipse cx="349.8" cy="-146.4" rx="52" ry="34"
      transform="rotate(123.4 349.8 -146.4)"
      fill="none" stroke="#8a8d91" stroke-width="17" opacity="0.97"/><ellipse cx="383.5" cy="-75.4" rx="52" ry="34"
      transform="rotate(107.2 383.5 -75.4)"
      fill="none" stroke="#4B4F55" stroke-width="17" opacity="0.97"/>
    <g transform="translate(0 -315)">
      <circle r="72" fill="none" stroke="#8a8d91" stroke-width="20"/>
      <circle r="40" fill="none" stroke="#4B4F55" stroke-width="16"/>
    </g>
  </g>
  <rect width="1200" height="1500" fill="url(#sheen-k9-check-training-chain-2)" opacity="0.5"/>
  <rect width="1200" height="1500" filter="url(#grain-k9-check-training-chain-2)"/>
</svg>