<svg xmlns="http://www.w3.org/2000/svg" width="1200" height="1500" viewBox="0 0 1200 1500">
  
  <defs>
    <linearGradient id="bg-k9-drill-training-collar-2" x1="0" y1="0" x2="0" y2="1">
      <stop offset="0%" stop-color="#191919"/>
      <stop offset="100%" stop-color="#0e0e0e"/>
    </linearGradient>
    <radialGradient id="floor-k9-drill-training-collar-2" cx="50%" cy="50%" r="50%">
      <stop offset="0%" stop-color="#000000" stop-opacity="0.45"/>
      <stop offset="100%" stop-color="#000000" stop-opacity="0"/>
    </radialGradient>
    <linearGradient id="sheen-k9-drill-training-collar-2" x1="0" y1="0" x2="0" y2="1">
      <stop offset="0%" stop-color="#ffffff" stop-opacity="0.04"/>
      <stop offset="60%" stop-color="#ffffff" stop-opacity="0"/>
      <stop offset="100%" stop-color="#000000" stop-opacity="0.1"/>
    </linearGradient>
  </defs>
  <rect width="1200" height="1500" fill="url(#bg-k9-drill-training-collar-2)"/>
  <ellipse cx="600" cy="1150" rx="460" ry="110" fill="url(#floor-k9-drill-training-collar-2)"/>
  
  <g transform="translate(600 640) scale(1.45) rotate(6)">
    <ellipse rx="378" ry="301" fill="none" stroke="#22271d" stroke-width="122"/>
    <ellipse rx="378" ry="301" fill="none" stroke="#3E4634" stroke-width="112"/>
    <ellipse rx="378" ry="301" fill="none" stroke="#686f61" stroke-width="20"
      stroke-dasharray="454 1890" stroke-dashoffset="151" opacity="0.18"/>
    <ellipse rx="378" ry="301" fill="none" stroke="#22271d" stroke-width="2"
      stroke-dasharray="8 22" opacity="0.5" transform="scale(0.9022222222222223 0.8772093023255815)"/>
    <ellipse rx="378" ry="301" fill="none" stroke="#22271d" stroke-width="2"
      stroke-dasharray="8 22" opacity="0.5" transform="scale(1.0977777777777777 1.1227906976744186)"/>
    <g transform="rotate(-30) translate(0 -301)">
      <rect x="-95" y="-72" width="190" height="144" rx="18" fill="#2b2d30" stroke="#54575c" stroke-width="5"/>
      <rect x="-58" y="-52" width="116" height="88" rx="10" fill="#1a1b1d" stroke="#45484d" stroke-width="4"/>
      <circle cx="72" cy="0" r="9" fill="#54575c"/>
      <circle cx="-72" cy="0" r="9" fill="#54575c"/>
    </g>
    <g transform="rotate(150) translate(0 -301)">
      <circle r="69.44" fill="none" stroke="#8f9399" stroke-width="16"/>
      <circle r="69.44" fill="none" stroke="#c6cad0" stroke-width="6" stroke-dasharray="40 90"/>
      <rect x="-61.60000000000001" y="-20" width="123.20000000000002" height="40" rx="12" fill="#22271d" stroke="#191c15" stroke-width="4"/>
    </g>
  </g>
  <rect width="1200" height="1500" fill="url(#sheen-k9-drill-training-collar-2)" opacity="0.5"/>
</svg>