<svg xmlns="http://www.w3.org/2000/svg" width="1200" height="1500" viewBox="0 0 1200 1500">
  
  <defs>
    <linearGradient id="bg-kodiak-duty-collar-1" x1="0" y1="0" x2="0" y2="1">
      <stop offset="0%" stop-color="#ffffff"/>
      <stop offset="100%" stop-color="#ececea"/>
    </linearGradient>
    <radialGradient id="floor-kodiak-duty-collar-1" cx="50%" cy="50%" r="50%">
      <stop offset="0%" stop-color="#16161a" stop-opacity="0.16"/>
      <stop offset="100%" stop-color="#16161a" stop-opacity="0"/>
    </radialGradient>
    <linearGradient id="sheen-kodiak-duty-collar-1" x1="0" y1="0" x2="0" y2="1">
      <stop offset="0%" stop-color="#ffffff" stop-opacity="0"/>
      <stop offset="60%" stop-color="#ffffff" stop-opacity="0"/>
      <stop offset="100%" stop-color="#16161a" stop-opacity="0.05"/>
    </linearGradient>
  </defs>
  <rect width="1200" height="1500" fill="url(#bg-kodiak-duty-collar-1)"/>
  <ellipse cx="600" cy="1150" rx="460" ry="110" fill="url(#floor-kodiak-duty-collar-1)"/>
  
  <g transform="translate(600 720) scale(1) rotate(-5)">
    <ellipse rx="366" ry="308" fill="none" stroke="#293325" stroke-width="118"/>
    <ellipse rx="366" ry="308" fill="none" stroke="#4A5D43" stroke-width="108"/>
    <ellipse rx="366" ry="308" fill="none" stroke="#72816c" stroke-width="19"
      stroke-dasharray="439 1830" stroke-dashoffset="146" opacity="0.18"/>
    <ellipse rx="366" ry="308" fill="none" stroke="#293325" stroke-width="2"
      stroke-dasharray="8 22" opacity="0.5" transform="scale(0.9026229508196721 0.8842857142857143)"/>
    <ellipse rx="366" ry="308" fill="none" stroke="#293325" stroke-width="2"
      stroke-dasharray="8 22" opacity="0.5" transform="scale(1.0973770491803279 1.1157142857142857)"/>
    <g transform="rotate(-32) translate(0 -308)">
      <rect x="-95" y="-70" width="190" height="140" rx="18" fill="#2b2d30" stroke="#54575c" stroke-width="5"/>
      <rect x="-58" y="-50" width="116" height="84" rx="10" fill="#1a1b1d" stroke="#45484d" stroke-width="4"/>
      <circle cx="72" cy="0" r="9" fill="#54575c"/>
      <circle cx="-72" cy="0" r="9" fill="#54575c"/>
    </g>
    <g transform="rotate(148) translate(0 -308)">
      <circle r="66.96" fill="none" stroke="#8f9399" stroke-width="16"/>
      <circle r="66.96" fill="none" stroke="#c6cad0" stroke-width="6" stroke-dasharray="40 90"/>
      <rect x="-59.400000000000006" y="-20" width="118.80000000000001" height="40" rx="12" fill="#293325" stroke="#1e251b" stroke-width="4"/>
    </g>
  </g>
  <rect width="1200" height="1500" fill="url(#sheen-kodiak-duty-collar-1)" opacity="0.5"/>
</svg>