<svg xmlns="http://www.w3.org/2000/svg" width="1200" height="1500" viewBox="0 0 1200 1500">
  
  <defs>
    <linearGradient id="bg-pulse-e-collar-strap-1" x1="0" y1="0" x2="0" y2="1">
      <stop offset="0%" stop-color="#ffffff"/>
      <stop offset="100%" stop-color="#ececea"/>
    </linearGradient>
    <radialGradient id="floor-pulse-e-collar-strap-1" cx="50%" cy="50%" r="50%">
      <stop offset="0%" stop-color="#16161a" stop-opacity="0.16"/>
      <stop offset="100%" stop-color="#16161a" stop-opacity="0"/>
    </radialGradient>
    <linearGradient id="sheen-pulse-e-collar-strap-1" x1="0" y1="0" x2="0" y2="1">
      <stop offset="0%" stop-color="#ffffff" stop-opacity="0"/>
      <stop offset="60%" stop-color="#ffffff" stop-opacity="0"/>
      <stop offset="100%" stop-color="#16161a" stop-opacity="0.05"/>
    </linearGradient>
  </defs>
  <rect width="1200" height="1500" fill="url(#bg-pulse-e-collar-strap-1)"/>
  <ellipse cx="600" cy="1150" rx="460" ry="110" fill="url(#floor-pulse-e-collar-strap-1)"/>
  
  <g transform="translate(600 720) scale(1) rotate(-12)">
    <ellipse rx="368" ry="281" fill="none" stroke="#62000f" stroke-width="122"/>
    <ellipse rx="368" ry="281" fill="none" stroke="#B3001B" stroke-width="112"/>
    <ellipse rx="368" ry="281" fill="none" stroke="#c4384d" stroke-width="20"
      stroke-dasharray="442 1840" stroke-dashoffset="147" opacity="0.18"/>
    <ellipse rx="368" ry="281" fill="none" stroke="#62000f" stroke-width="2"
      stroke-dasharray="8 22" opacity="0.5" transform="scale(0.8995652173913044 0.8684697508896797)"/>
    <ellipse rx="368" ry="281" fill="none" stroke="#62000f" stroke-width="2"
      stroke-dasharray="8 22" opacity="0.5" transform="scale(1.1004347826086955 1.1315302491103203)"/>
    <g transform="rotate(-15) translate(0 -281)">
      <rect x="-95" y="-72" width="190" height="144" rx="18" fill="#2b2d30" stroke="#54575c" stroke-width="5"/>
      <rect x="-58" y="-52" width="116" height="88" rx="10" fill="#1a1b1d" stroke="#45484d" stroke-width="4"/>
      <circle cx="72" cy="0" r="9" fill="#54575c"/>
      <circle cx="-72" cy="0" r="9" fill="#54575c"/>
    </g>
    <g transform="rotate(165) translate(0 -281)">
      <circle r="69.44" fill="none" stroke="#8f9399" stroke-width="16"/>
      <circle r="69.44" fill="none" stroke="#c6cad0" stroke-width="6" stroke-dasharray="40 90"/>
      <rect x="-61.60000000000001" y="-20" width="123.20000000000002" height="40" rx="12" fill="#62000f" stroke="#48000b" stroke-width="4"/>
    </g>
  </g>
  <rect width="1200" height="1500" fill="url(#sheen-pulse-e-collar-strap-1)" opacity="0.5"/>
</svg>