<svg xmlns="http://www.w3.org/2000/svg" width="1200" height="1500" viewBox="0 0 1200 1500">
  
  <defs>
    <linearGradient id="bg-raptor-e-fit-field-collar-2" x1="0" y1="0" x2="0" y2="1">
      <stop offset="0%" stop-color="#ffffff"/>
      <stop offset="100%" stop-color="#ececea"/>
    </linearGradient>
    <radialGradient id="floor-raptor-e-fit-field-collar-2" cx="50%" cy="50%" r="50%">
      <stop offset="0%" stop-color="#16161a" stop-opacity="0.16"/>
      <stop offset="100%" stop-color="#16161a" stop-opacity="0"/>
    </radialGradient>
    <linearGradient id="sheen-raptor-e-fit-field-collar-2" x1="0" y1="0" x2="0" y2="1">
      <stop offset="0%" stop-color="#ffffff" stop-opacity="0"/>
      <stop offset="60%" stop-color="#ffffff" stop-opacity="0"/>
      <stop offset="100%" stop-color="#16161a" stop-opacity="0.05"/>
    </linearGradient>
  </defs>
  <rect width="1200" height="1500" fill="url(#bg-raptor-e-fit-field-collar-2)"/>
  <ellipse cx="600" cy="1150" rx="460" ry="110" fill="url(#floor-raptor-e-fit-field-collar-2)"/>
  
  <g transform="translate(600 640) scale(1.45) rotate(12)">
    <ellipse rx="365" ry="290" fill="none" stroke="#293325" stroke-width="108"/>
    <ellipse rx="365" ry="290" fill="none" stroke="#4A5D43" stroke-width="98"/>
    <ellipse rx="365" ry="290" fill="none" stroke="#72816c" stroke-width="18"
      stroke-dasharray="438 1825" stroke-dashoffset="146" opacity="0.18"/>
    <ellipse rx="365" ry="290" fill="none" stroke="#293325" stroke-width="2"
      stroke-dasharray="8 22" opacity="0.5" transform="scale(0.9113972602739725 0.8884827586206896)"/>
    <ellipse rx="365" ry="290" fill="none" stroke="#293325" stroke-width="2"
      stroke-dasharray="8 22" opacity="0.5" transform="scale(1.0886027397260274 1.1115172413793104)"/>
    <g transform="rotate(-25) translate(0 -290)">
      <rect x="-95" y="-65" width="190" height="130" rx="18" fill="#2b2d30" stroke="#54575c" stroke-width="5"/>
      <rect x="-58" y="-45" width="116" height="74" rx="10" fill="#1a1b1d" stroke="#45484d" stroke-width="4"/>
      <circle cx="72" cy="0" r="9" fill="#54575c"/>
      <circle cx="-72" cy="0" r="9" fill="#54575c"/>
    </g>
    <g transform="rotate(155) translate(0 -290)">
      <circle r="60.76" fill="none" stroke="#8f9399" stroke-width="16"/>
      <circle r="60.76" fill="none" stroke="#c6cad0" stroke-width="6" stroke-dasharray="40 90"/>
      <rect x="-53.900000000000006" y="-20" width="107.80000000000001" height="40" rx="12" fill="#293325" stroke="#1e251b" stroke-width="4"/>
    </g>
  </g>
  <rect width="1200" height="1500" fill="url(#sheen-raptor-e-fit-field-collar-2)" opacity="0.5"/>
</svg>