<svg xmlns="http://www.w3.org/2000/svg" width="1200" height="1500" viewBox="0 0 1200 1500">
  
  <defs>
    <linearGradient id="bg-relay-e-collar-1" x1="0" y1="0" x2="0" y2="1">
      <stop offset="0%" stop-color="#191919"/>
      <stop offset="100%" stop-color="#0e0e0e"/>
    </linearGradient>
    <radialGradient id="floor-relay-e-collar-1" cx="50%" cy="50%" r="50%">
      <stop offset="0%" stop-color="#000000" stop-opacity="0.45"/>
      <stop offset="100%" stop-color="#000000" stop-opacity="0"/>
    </radialGradient>
    <linearGradient id="sheen-relay-e-collar-1" x1="0" y1="0" x2="0" y2="1">
      <stop offset="0%" stop-color="#ffffff" stop-opacity="0.04"/>
      <stop offset="60%" stop-color="#ffffff" stop-opacity="0"/>
      <stop offset="100%" stop-color="#000000" stop-opacity="0.1"/>
    </linearGradient>
  </defs>
  <rect width="1200" height="1500" fill="url(#bg-relay-e-collar-1)"/>
  <ellipse cx="600" cy="1150" rx="460" ry="110" fill="url(#floor-relay-e-collar-1)"/>
  
  <g transform="translate(600 720) scale(1) rotate(2)">
    <ellipse rx="377" ry="287" fill="none" stroke="#293325" stroke-width="111"/>
    <ellipse rx="377" ry="287" fill="none" stroke="#4A5D43" stroke-width="101"/>
    <ellipse rx="377" ry="287" fill="none" stroke="#72816c" stroke-width="18"
      stroke-dasharray="452 1885" stroke-dashoffset="151" opacity="0.18"/>
    <ellipse rx="377" ry="287" fill="none" stroke="#293325" stroke-width="2"
      stroke-dasharray="8 22" opacity="0.5" transform="scale(0.9115915119363396 0.8838675958188154)"/>
    <ellipse rx="377" ry="287" fill="none" stroke="#293325" stroke-width="2"
      stroke-dasharray="8 22" opacity="0.5" transform="scale(1.0884084880636604 1.1161324041811846)"/>
    <g transform="rotate(-32) translate(0 -287)">
      <rect x="-95" y="-66.5" width="190" height="133" rx="18" fill="#2b2d30" stroke="#54575c" stroke-width="5"/>
      <rect x="-58" y="-46.5" width="116" height="77" rx="10" fill="#1a1b1d" stroke="#45484d" stroke-width="4"/>
      <circle cx="72" cy="0" r="9" fill="#54575c"/>
      <circle cx="-72" cy="0" r="9" fill="#54575c"/>
    </g>
    <g transform="rotate(148) translate(0 -287)">
      <circle r="62.62" fill="none" stroke="#8f9399" stroke-width="16"/>
      <circle r="62.62" fill="none" stroke="#c6cad0" stroke-width="6" stroke-dasharray="40 90"/>
      <rect x="-55.550000000000004" y="-20" width="111.10000000000001" height="40" rx="12" fill="#293325" stroke="#1e251b" stroke-width="4"/>
    </g>
  </g>
  <rect width="1200" height="1500" fill="url(#sheen-relay-e-collar-1)" opacity="0.5"/>
</svg>