<svg xmlns="http://www.w3.org/2000/svg" width="1200" height="1500" viewBox="0 0 1200 1500">
  
  <defs>
    <linearGradient id="bg-scent-detection-collar-2" x1="0" y1="0" x2="0" y2="1">
      <stop offset="0%" stop-color="#191919"/>
      <stop offset="100%" stop-color="#0e0e0e"/>
    </linearGradient>
    <radialGradient id="floor-scent-detection-collar-2" cx="50%" cy="50%" r="50%">
      <stop offset="0%" stop-color="#000000" stop-opacity="0.45"/>
      <stop offset="100%" stop-color="#000000" stop-opacity="0"/>
    </radialGradient>
    <linearGradient id="sheen-scent-detection-collar-2" x1="0" y1="0" x2="0" y2="1">
      <stop offset="0%" stop-color="#ffffff" stop-opacity="0.04"/>
      <stop offset="60%" stop-color="#ffffff" stop-opacity="0"/>
      <stop offset="100%" stop-color="#000000" stop-opacity="0.1"/>
    </linearGradient>
  </defs>
  <rect width="1200" height="1500" fill="url(#bg-scent-detection-collar-2)"/>
  <ellipse cx="600" cy="1150" rx="460" ry="110" fill="url(#floor-scent-detection-collar-2)"/>
  
  <g transform="translate(600 640) scale(1.45) rotate(10)">
    <ellipse rx="372" ry="280" fill="none" stroke="#433322" stroke-width="112"/>
    <ellipse rx="372" ry="280" fill="none" stroke="#7A5C3E" stroke-width="102"/>
    <ellipse rx="372" ry="280" fill="none" stroke="#978068" stroke-width="18"
      stroke-dasharray="446 1860" stroke-dashoffset="149" opacity="0.18"/>
    <ellipse rx="372" ry="280" fill="none" stroke="#433322" stroke-width="2"
      stroke-dasharray="8 22" opacity="0.5" transform="scale(0.909516129032258 0.8797857142857143)"/>
    <ellipse rx="372" ry="280" fill="none" stroke="#433322" stroke-width="2"
      stroke-dasharray="8 22" opacity="0.5" transform="scale(1.090483870967742 1.1202142857142858)"/>
    <g transform="rotate(-34) translate(0 -280)">
      <rect x="-95" y="-67" width="190" height="134" rx="18" fill="#2b2d30" stroke="#54575c" stroke-width="5"/>
      <rect x="-58" y="-47" width="116" height="78" rx="10" fill="#1a1b1d" stroke="#45484d" stroke-width="4"/>
      <circle cx="72" cy="0" r="9" fill="#54575c"/>
      <circle cx="-72" cy="0" r="9" fill="#54575c"/>
    </g>
    <g transform="rotate(146) translate(0 -280)">
      <circle r="63.24" fill="none" stroke="#8f9399" stroke-width="16"/>
      <circle r="63.24" fill="none" stroke="#c6cad0" stroke-width="6" stroke-dasharray="40 90"/>
      <rect x="-56.1" y="-20" width="112.2" height="40" rx="12" fill="#433322" stroke="#312519" stroke-width="4"/>
    </g>
  </g>
  <rect width="1200" height="1500" fill="url(#sheen-scent-detection-collar-2)" opacity="0.5"/>
</svg>