<svg xmlns="http://www.w3.org/2000/svg" width="1200" height="1500" viewBox="0 0 1200 1500">
  
  <defs>
    <linearGradient id="bg-timber-trail-collar-3" x1="0" y1="0" x2="0" y2="1">
      <stop offset="0%" stop-color="#ffffff"/>
      <stop offset="100%" stop-color="#ececea"/>
    </linearGradient>
    <radialGradient id="floor-timber-trail-collar-3" cx="50%" cy="50%" r="50%">
      <stop offset="0%" stop-color="#16161a" stop-opacity="0.16"/>
      <stop offset="100%" stop-color="#16161a" stop-opacity="0"/>
    </radialGradient>
    <filter id="grain-timber-trail-collar-3">
      <feTurbulence type="fractalNoise" baseFrequency="0.85" numOctaves="1" stitchTiles="stitch"/>
      <feColorMatrix type="matrix" values="0 0 0 0 0  0 0 0 0 0  0 0 0 0 0  0 0 0 0.016 0"/>
    </filter>
    <linearGradient id="sheen-timber-trail-collar-3" x1="0" y1="0" x2="0" y2="1">
      <stop offset="0%" stop-color="#ffffff" stop-opacity="0"/>
      <stop offset="60%" stop-color="#ffffff" stop-opacity="0"/>
      <stop offset="100%" stop-color="#16161a" stop-opacity="0.05"/>
    </linearGradient>
  </defs>
  <rect width="1200" height="1500" fill="url(#bg-timber-trail-collar-3)"/>
  <ellipse cx="600" cy="1150" rx="460" ry="110" fill="url(#floor-timber-trail-collar-3)"/>
  
  <g transform="translate(600 760) rotate(4)">
    <rect x="-420" y="-105" width="420" height="210" rx="16" fill="#433322"/>
    <rect x="-420" y="-92" width="420" height="184" rx="10" fill="#7A5C3E"/>
    <rect x="-420" y="-92" width="420" height="26" fill="#978068" opacity="0.35"/>
    <g stroke="#2e2318" stroke-width="5" stroke-dasharray="16 20" opacity="0.9">
      <path d="M-420 -60 H0"/>
      <path d="M-420 60 H0"/>
    </g>
    <rect x="-30" y="-150" width="330" height="300" rx="34" fill="#2b2d30" stroke="#5b5f66" stroke-width="8"/>
    <rect x="30" y="-92" width="210" height="184" rx="20" fill="#141517" stroke="#4a4d53" stroke-width="6"/>
    <circle cx="255" cy="-105" r="14" fill="#6c7076"/>
    <circle cx="255" cy="105" r="14" fill="#6c7076"/>
    <rect x="300" y="-92" width="140" height="184" rx="14" fill="#433322"/>
    <rect x="300" y="-92" width="140" height="184" rx="14" fill="#7A5C3E" opacity="0.85"/>
  </g>
  <rect width="1200" height="1500" fill="url(#sheen-timber-trail-collar-3)" opacity="0.5"/>
  <rect width="1200" height="1500" filter="url(#grain-timber-trail-collar-3)"/>
</svg>