<svg xmlns="http://www.w3.org/2000/svg" width="1200" height="1500" viewBox="0 0 1200 1500">
  
  <defs>
    <linearGradient id="bg-torque-chain-collar-4" x1="0" y1="0" x2="0" y2="1">
      <stop offset="0%" stop-color="#ffffff"/>
      <stop offset="100%" stop-color="#ececea"/>
    </linearGradient>
    <radialGradient id="floor-torque-chain-collar-4" cx="50%" cy="50%" r="50%">
      <stop offset="0%" stop-color="#16161a" stop-opacity="0.16"/>
      <stop offset="100%" stop-color="#16161a" stop-opacity="0"/>
    </radialGradient>
    <filter id="grain-torque-chain-collar-4">
      <feTurbulence type="fractalNoise" baseFrequency="0.85" numOctaves="1" stitchTiles="stitch"/>
      <feColorMatrix type="matrix" values="0 0 0 0 0  0 0 0 0 0  0 0 0 0 0  0 0 0 0.016 0"/>
    </filter>
    <linearGradient id="sheen-torque-chain-collar-4" x1="0" y1="0" x2="0" y2="1">
      <stop offset="0%" stop-color="#ffffff" stop-opacity="0"/>
      <stop offset="60%" stop-color="#ffffff" stop-opacity="0"/>
      <stop offset="100%" stop-color="#16161a" stop-opacity="0.05"/>
    </linearGradient>
  </defs>
  <rect width="1200" height="1500" fill="url(#bg-torque-chain-collar-4)"/>
  <ellipse cx="600" cy="1150" rx="460" ry="110" fill="url(#floor-torque-chain-collar-4)"/>
  
  <g transform="translate(600 760) rotate(3)">
    
    <rect x="-360" y="-153" width="720" height="46" rx="17" fill="#575a5c"/>
    <rect x="-360" y="-147" width="720" height="34" rx="17" fill="#9EA3A8"/>
    <rect x="-340" y="-141" width="680" height="5" rx="6" fill="#afb4b8" opacity="0.16"/>
    
    
    <rect x="-310" y="67" width="620" height="46" rx="17" fill="#575a5c"/>
    <rect x="-310" y="73" width="620" height="34" rx="17" fill="#9EA3A8"/>
    <rect x="-290" y="79" width="580" height="5" rx="6" fill="#afb4b8" opacity="0.16"/>
    
    <g transform="translate(-300 -130)">
      <circle r="18.700000000000003" fill="none" stroke="#8f9399" stroke-width="12"/>
    </g>
    <g transform="translate(280 90)">
      <rect x="-70" y="-25" width="140" height="50" rx="14" fill="#2b2d30" stroke="#54575c" stroke-width="4"/>
      <rect x="-42" y="-19" width="84" height="38" rx="8" fill="#1a1b1d" stroke="#45484d" stroke-width="3"/>
    </g>
  </g>
  <rect width="1200" height="1500" fill="url(#sheen-torque-chain-collar-4)" opacity="0.5"/>
  <rect width="1200" height="1500" filter="url(#grain-torque-chain-collar-4)"/>
</svg>