<svg xmlns="http://www.w3.org/2000/svg" width="1200" height="1500" viewBox="0 0 1200 1500">
  
  <defs>
    <linearGradient id="bg-vanguard-collar-1" x1="0" y1="0" x2="0" y2="1">
      <stop offset="0%" stop-color="#ffffff"/>
      <stop offset="100%" stop-color="#ececea"/>
    </linearGradient>
    <radialGradient id="floor-vanguard-collar-1" cx="50%" cy="50%" r="50%">
      <stop offset="0%" stop-color="#16161a" stop-opacity="0.16"/>
      <stop offset="100%" stop-color="#16161a" stop-opacity="0"/>
    </radialGradient>
    <linearGradient id="sheen-vanguard-collar-1" x1="0" y1="0" x2="0" y2="1">
      <stop offset="0%" stop-color="#ffffff" stop-opacity="0"/>
      <stop offset="60%" stop-color="#ffffff" stop-opacity="0"/>
      <stop offset="100%" stop-color="#16161a" stop-opacity="0.05"/>
    </linearGradient>
  </defs>
  <rect width="1200" height="1500" fill="url(#bg-vanguard-collar-1)"/>
  <ellipse cx="600" cy="1150" rx="460" ry="110" fill="url(#floor-vanguard-collar-1)"/>
  
  <g transform="translate(600 720) scale(1) rotate(-6)">
    <ellipse rx="363" ry="269" fill="none" stroke="#433322" stroke-width="116"/>
    <ellipse rx="363" ry="269" fill="none" stroke="#7A5C3E" stroke-width="106"/>
    <ellipse rx="363" ry="269" fill="none" stroke="#978068" stroke-width="19"
      stroke-dasharray="436 1815" stroke-dashoffset="145" opacity="0.18"/>
    <ellipse rx="363" ry="269" fill="none" stroke="#433322" stroke-width="2"
      stroke-dasharray="8 22" opacity="0.5" transform="scale(0.9036363636363636 0.8699628252788103)"/>
    <ellipse rx="363" ry="269" fill="none" stroke="#433322" stroke-width="2"
      stroke-dasharray="8 22" opacity="0.5" transform="scale(1.0963636363636364 1.1300371747211897)"/>
    <g transform="rotate(-29) translate(0 -269)">
      <rect x="-95" y="-69" width="190" height="138" rx="18" fill="#2b2d30" stroke="#54575c" stroke-width="5"/>
      <rect x="-58" y="-49" width="116" height="82" rx="10" fill="#1a1b1d" stroke="#45484d" stroke-width="4"/>
      <circle cx="72" cy="0" r="9" fill="#54575c"/>
      <circle cx="-72" cy="0" r="9" fill="#54575c"/>
    </g>
    <g transform="rotate(151) translate(0 -269)">
      <circle r="65.72" fill="none" stroke="#8f9399" stroke-width="16"/>
      <circle r="65.72" fill="none" stroke="#c6cad0" stroke-width="6" stroke-dasharray="40 90"/>
      <rect x="-58.300000000000004" y="-20" width="116.60000000000001" height="40" rx="12" fill="#433322" stroke="#312519" stroke-width="4"/>
    </g>
  </g>
  <rect width="1200" height="1500" fill="url(#sheen-vanguard-collar-1)" opacity="0.5"/>
</svg>